# Blender v2.78 (sub 0) OBJ File: ''
# www.blender.org
mtllib cube.mtl
o Cube.001
v 0.839116 -0.204263 -0.064503
v -0.300143 -0.252866 0.771993
v 0.095486 -0.856996 0.080252
v -0.443487 -0.399867 -0.627237
v -0.095487 0.856995 -0.080252
v 0.300143 0.252867 -0.771992
v 0.443487 0.399867 0.627237
v -0.839116 0.204263 0.064503
vn 0.5390 -0.4571 0.7075
vn -0.5390 0.4571 -0.7075
vn 0.7436 0.6527 -0.1448
vn -0.3956 0.6041 0.6917
vn -0.7436 -0.6527 0.1448
vn 0.3956 -0.6041 -0.6917
usemtl Material.001
s 1
f 1//1 2//1 3//1
f 4//2 5//2 6//2
f 6//3 7//3 1//3
f 5//4 2//4 7//4
f 8//5 3//5 2//5
f 1//6 4//6 6//6
f 1//1 7//1 2//1
f 4//2 8//2 5//2
f 6//3 5//3 7//3
f 5//4 8//4 2//4
f 8//5 4//5 3//5
f 1//6 3//6 4//6
