# Blender v2.78 (sub 0) OBJ File: ''
# www.blender.org
mtllib cube.mtl
o Cube.001
v 0.500000 0.000000 -0.500000
v -0.500000 -0.000000 0.500000
v -0.500000 0.000000 -0.500000
v -0.500000 1.000000 -0.500000
v 0.499999 1.000000 0.500000
v 0.500000 1.000000 -0.499999
v 0.500000 -0.000000 0.500000
v -0.500000 1.000000 0.500000
vn 0.0000 -1.0000 -0.0000
vn -0.0000 1.0000 0.0000
vn 1.0000 0.0000 0.0000
vn 0.0000 -0.0000 1.0000
vn -1.0000 -0.0000 0.0000
vn 0.0000 0.0000 -1.0000
usemtl Material
s 1
f 1//1 2//1 3//1
f 4//2 5//2 6//2
f 6//3 7//3 1//3
f 5//4 2//4 7//4
f 8//5 3//5 2//5
f 1//6 4//6 6//6
f 1//1 7//1 2//1
f 4//2 8//2 5//2
f 6//3 5//3 7//3
f 5//4 8//4 2//4
f 8//5 4//5 3//5
f 1//6 3//6 4//6
